<svg width="18" height="24" viewBox="0 0 18 24" fill="none" xmlns="http://www.w3.org/2000/svg">
<path d="M8.57238 24C6.29884 24 4.11842 23.0968 2.51079 21.4892C0.903159 19.8816 0 17.7012 0 15.4276C0 12.8559 1.65447 2.85194 1.71448 2.43189C1.74334 2.24552 1.83285 2.07387 1.96915 1.94352C2.10546 1.81318 2.28094 1.73142 2.46841 1.71092C2.65589 1.69041 2.84489 1.73231 3.00615 1.8301C3.1674 1.9279 3.29191 2.07615 3.36037 2.25187L5.8035 8.36398L7.73229 0.648839C7.77874 0.463481 7.8858 0.298959 8.03645 0.181403C8.1871 0.063848 8.37272 0 8.56381 0C8.7549 0 8.94051 0.063848 9.09116 0.181403C9.24182 0.298959 9.34887 0.463481 9.39533 0.648839L11.3241 8.36398L13.7672 2.25187C13.8301 2.06762 13.9539 1.91025 14.1181 1.80568C14.2823 1.7011 14.4772 1.65554 14.6708 1.67649C14.8643 1.69744 15.045 1.78366 15.1831 1.92096C15.3211 2.05825 15.4083 2.23845 15.4303 2.43189C15.4903 2.85194 17.1448 12.8559 17.1448 15.4276C17.1448 17.7012 16.2416 19.8816 14.634 21.4892C13.0263 23.0968 10.8459 24 8.57238 24ZM2.93175 5.76655C2.42598 8.98976 1.71448 13.8246 1.71448 15.4276C1.71448 17.2465 2.437 18.9908 3.72311 20.2769C5.00922 21.563 6.75355 22.2855 8.57238 22.2855C10.3912 22.2855 12.1355 21.563 13.4216 20.2769C14.7078 18.9908 15.4303 17.2465 15.4303 15.4276C15.4303 13.8246 14.7188 8.98976 14.213 5.76655L11.9413 11.4586C11.8744 11.628 11.7552 11.7717 11.601 11.8688C11.4469 11.9659 11.2658 12.0114 11.0841 11.9987C10.9031 11.9857 10.7309 11.9157 10.5922 11.7986C10.4536 11.6815 10.3557 11.5234 10.3126 11.3472L8.57238 4.3864L6.8579 11.3472C6.81482 11.5234 6.7169 11.6815 6.57826 11.7986C6.43961 11.9157 6.26739 11.9857 6.08639 11.9987C5.90466 12.0114 5.72359 11.9659 5.56945 11.8688C5.41531 11.7717 5.29611 11.628 5.22915 11.4586L2.93175 5.76655Z" fill="#FA4F09"/>
<path d="M12.8071 16.5849C12.7898 16.4455 12.7386 16.3125 12.6578 16.1975C12.577 16.0826 12.4692 15.9893 12.3439 15.9258C12.2186 15.8623 12.0796 15.8305 11.9391 15.8334C11.7987 15.8362 11.6611 15.8735 11.5384 15.942C11.1589 16.1651 10.727 16.2834 10.2869 16.2849C9.65895 16.2902 9.05079 16.0656 8.57705 15.6535C8.10332 15.2413 7.79674 14.6701 7.71514 14.0475C7.6967 13.9095 7.64491 13.778 7.56425 13.6645C7.4836 13.551 7.3765 13.4588 7.25223 13.396C7.1282 13.33 6.98984 13.2954 6.84933 13.2954C6.70881 13.2954 6.57045 13.33 6.44643 13.396C5.79329 13.7691 5.24984 14.3075 4.87067 14.9571C4.4915 15.6067 4.28997 16.3447 4.28631 17.0969C4.28264 17.8491 4.47699 18.589 4.84982 19.2422C5.22265 19.8955 5.76083 20.4392 6.4103 20.8186C7.05977 21.1981 7.79765 21.3999 8.54983 21.4039C9.302 21.4078 10.042 21.2138 10.6954 20.8412C11.3488 20.4687 11.8927 19.9307 12.2724 19.2814C12.6521 18.6321 12.8543 17.8943 12.8586 17.1421C12.8551 16.9554 12.8379 16.7691 12.8071 16.5849Z" fill="#FA4F09"/>
<path d="M15.8674 17.9224L15.4302 14.7678C15.4302 16.6966 11.8727 20.0141 8.57232 20.0141C5.27195 20.0141 1.41438 15.5393 1.79157 14.0991L0.857178 14.7506C0.857178 15.0078 0.857178 15.2392 0.857178 15.4278C0.861046 17.2519 1.5111 19.0157 2.69194 20.406C3.87279 21.7962 5.50805 22.7232 7.30746 23.0222C9.10688 23.3213 10.9541 22.9731 12.5211 22.0395C14.0882 21.1058 15.2738 19.6472 15.8674 17.9224Z" fill="#FA4F09"/>
</svg>
