<svg width="158" height="54" viewBox="0 0 158 54" fill="none" xmlns="http://www.w3.org/2000/svg">
<path d="M79.2281 40.4321C77.2361 40.4321 75.3881 40.1081 73.6841 39.4601C72.0041 38.8121 70.5401 37.9001 69.2921 36.7241C68.0681 35.5481 67.1081 34.1681 66.4121 32.5841C65.7401 31.0001 65.4041 29.2721 65.4041 27.4001C65.4041 25.5281 65.7401 23.8001 66.4121 22.2161C67.1081 20.6321 68.0801 19.2521 69.3281 18.0761C70.5761 16.9001 72.0401 15.9881 73.7201 15.3401C75.4001 14.6921 77.2241 14.3681 79.1921 14.3681C81.1841 14.3681 83.0081 14.6921 84.6641 15.3401C86.3441 15.9881 87.7961 16.9001 89.0201 18.0761C90.2681 19.2521 91.2401 20.6321 91.9361 22.2161C92.6321 23.7761 92.9801 25.5041 92.9801 27.4001C92.9801 29.2721 92.6321 31.0121 91.9361 32.6201C91.2401 34.2041 90.2681 35.5841 89.0201 36.7601C87.7961 37.9121 86.3441 38.8121 84.6641 39.4601C83.0081 40.1081 81.1961 40.4321 79.2281 40.4321ZM79.1921 35.4641C80.3201 35.4641 81.3521 35.2721 82.2881 34.8881C83.2481 34.5041 84.0881 33.9521 84.8081 33.2321C85.5281 32.5121 86.0801 31.6601 86.4641 30.6761C86.8721 29.6921 87.0761 28.6001 87.0761 27.4001C87.0761 26.2001 86.8721 25.1081 86.4641 24.1241C86.0801 23.1401 85.5281 22.2881 84.8081 21.5681C84.1121 20.8481 83.2841 20.2961 82.3241 19.9121C81.3641 19.5281 80.3201 19.3361 79.1921 19.3361C78.0641 19.3361 77.0201 19.5281 76.0601 19.9121C75.1241 20.2961 74.2961 20.8481 73.5761 21.5681C72.8561 22.2881 72.2921 23.1401 71.8841 24.1241C71.5001 25.1081 71.3081 26.2001 71.3081 27.4001C71.3081 28.5761 71.5001 29.6681 71.8841 30.6761C72.2921 31.6601 72.8441 32.5121 73.5401 33.2321C74.2601 33.9521 75.1001 34.5041 76.0601 34.8881C77.0201 35.2721 78.0641 35.4641 79.1921 35.4641Z" fill="white"/>
<path d="M105.283 40.2881C103.459 40.2881 101.815 39.8801 100.351 39.0641C98.8871 38.2241 97.7231 37.0601 96.8591 35.5721C96.0191 34.0841 95.5991 32.3321 95.5991 30.3161C95.5991 28.2761 96.0191 26.5121 96.8591 25.0241C97.7231 23.5361 98.8871 22.3841 100.351 21.5681C101.815 20.7521 103.459 20.3441 105.283 20.3441C106.915 20.3441 108.343 20.7041 109.567 21.4241C110.791 22.1441 111.739 23.2361 112.411 24.7001C113.083 26.1641 113.419 28.0361 113.419 30.3161C113.419 32.5721 113.095 34.4441 112.447 35.9321C111.799 37.3961 110.863 38.4881 109.639 39.2081C108.439 39.9281 106.987 40.2881 105.283 40.2881ZM106.255 35.6801C107.167 35.6801 107.995 35.4641 108.739 35.0321C109.483 34.6001 110.071 33.9881 110.503 33.1961C110.959 32.3801 111.187 31.4201 111.187 30.3161C111.187 29.1881 110.959 28.2281 110.503 27.4361C110.071 26.6441 109.483 26.0321 108.739 25.6001C107.995 25.1681 107.167 24.9521 106.255 24.9521C105.319 24.9521 104.479 25.1681 103.735 25.6001C102.991 26.0321 102.391 26.6441 101.935 27.4361C101.503 28.2281 101.287 29.1881 101.287 30.3161C101.287 31.4201 101.503 32.3801 101.935 33.1961C102.391 33.9881 102.991 34.6001 103.735 35.0321C104.479 35.4641 105.319 35.6801 106.255 35.6801ZM111.331 40.0001V36.0401L111.439 30.2801L111.079 24.5561V13.2881H116.695V40.0001H111.331Z" fill="white"/>
<path d="M131.109 40.2881C129.045 40.2881 127.209 39.8561 125.601 38.9921C124.017 38.1281 122.757 36.9521 121.821 35.4641C120.909 33.9521 120.453 32.2361 120.453 30.3161C120.453 28.3721 120.909 26.6561 121.821 25.1681C122.757 23.6561 124.017 22.4801 125.601 21.6401C127.209 20.7761 129.045 20.3441 131.109 20.3441C133.149 20.3441 134.973 20.7761 136.581 21.6401C138.189 22.4801 139.449 23.6441 140.361 25.1321C141.273 26.6201 141.729 28.3481 141.729 30.3161C141.729 32.2361 141.273 33.9521 140.361 35.4641C139.449 36.9521 138.189 38.1281 136.581 38.9921C134.973 39.8561 133.149 40.2881 131.109 40.2881ZM131.109 35.6801C132.045 35.6801 132.885 35.4641 133.629 35.0321C134.373 34.6001 134.961 33.9881 135.393 33.1961C135.825 32.3801 136.041 31.4201 136.041 30.3161C136.041 29.1881 135.825 28.2281 135.393 27.4361C134.961 26.6441 134.373 26.0321 133.629 25.6001C132.885 25.1681 132.045 24.9521 131.109 24.9521C130.173 24.9521 129.333 25.1681 128.589 25.6001C127.845 26.0321 127.245 26.6441 126.789 27.4361C126.357 28.2281 126.141 29.1881 126.141 30.3161C126.141 31.4201 126.357 32.3801 126.789 33.1961C127.245 33.9881 127.845 34.6001 128.589 35.0321C129.333 35.4641 130.173 35.6801 131.109 35.6801Z" fill="white"/>
<path d="M145.483 40.0001V20.6321H150.847V26.1041L150.091 24.5201C150.667 23.1521 151.591 22.1201 152.863 21.4241C154.135 20.7041 155.683 20.3441 157.507 20.3441V25.5281C157.267 25.5041 157.051 25.4921 156.859 25.4921C156.667 25.4681 156.463 25.4561 156.247 25.4561C154.711 25.4561 153.463 25.9001 152.503 26.7881C151.567 27.6521 151.099 29.0081 151.099 30.8561V40.0001H145.483Z" fill="white"/>
<path d="M27 54C41.9117 54 54 41.9117 54 27C54 12.0883 41.9117 0 27 0C12.0883 0 0 12.0883 0 27C0 41.9117 12.0883 54 27 54Z" fill="#FA4F09"/>
<path fill-rule="evenodd" clip-rule="evenodd" d="M22.0299 32.3398L23.0901 32.9497L24.9984 36.2624L19.8834 39.2309C19.4331 39.4953 19.2735 40.079 19.5392 40.5293L19.7774 40.9534L19.6452 41.007C19.3808 41.1654 19.3009 41.5109 19.4593 41.8015L20.5195 43.63H14.8744L21.2604 32.553C21.42 32.2861 21.7643 32.2075 22.0299 32.3398Z" fill="white"/>
<path fill-rule="evenodd" clip-rule="evenodd" d="M22.1621 32.1017L22.7982 32.4721L22.3741 31.73L22.1621 32.1017Z" fill="white"/>
<path fill-rule="evenodd" clip-rule="evenodd" d="M32.2587 30.9079L36.8698 22.9316L29.7941 18.8506L27.5677 22.747L29.0782 25.3438L31.2247 21.607L33.7691 23.0651L30.7745 28.2849L32.2587 30.9079Z" fill="white"/>
<path fill-rule="evenodd" clip-rule="evenodd" d="M30.8805 17.5261L37.5059 21.3428C37.612 21.4226 37.6644 21.5548 37.5858 21.687L37.0033 22.6935L29.9525 18.6125L30.535 17.606C30.5886 17.4737 30.7483 17.4463 30.8805 17.5261Z" fill="white"/>
<path fill-rule="evenodd" clip-rule="evenodd" d="M33.0532 16.8102L37.0282 19.1152C37.1605 19.1676 37.1866 19.3272 37.1343 19.4332L36.5243 20.4672L32.1252 17.8966L32.7077 16.8901C32.7613 16.7841 32.921 16.7317 33.0532 16.8102Z" fill="white"/>
<path fill-rule="evenodd" clip-rule="evenodd" d="M33.9014 16.9698L36.4458 18.454L39.7585 12.7029L37.2141 11.2461L33.9014 16.9698Z" fill="white"/>
<path fill-rule="evenodd" clip-rule="evenodd" d="M37.5845 10C38.6185 10.5825 39.6251 11.1662 40.659 11.7487C40.5006 11.9071 40.3672 12.0131 40.235 12.1465C40.129 12.2526 39.9968 12.3586 39.8907 12.4646C39.0426 11.9881 38.1945 11.4842 37.3463 11.0065C37.3987 10.8481 37.4261 10.7147 37.4523 10.5563C37.506 10.3717 37.5583 10.1858 37.5845 10Z" fill="white"/>
<path fill-rule="evenodd" clip-rule="evenodd" d="M29.8465 20.4946L35.438 23.7013C35.544 23.7811 35.7024 23.7275 35.7822 23.6215L36.2063 22.8793L30.1907 19.4082L29.7667 20.1503C29.6881 20.2551 29.7405 20.4147 29.8465 20.4946Z" fill="white"/>
<path fill-rule="evenodd" clip-rule="evenodd" d="M39.1223 12.7828C39.2022 12.809 39.2022 12.8888 39.1747 12.9412L36.3921 17.7905C36.3659 17.8429 36.2861 17.8429 36.2337 17.8167C36.1801 17.7905 36.1539 17.7107 36.1801 17.6571L38.9627 12.8339C39.0163 12.7828 39.0687 12.7566 39.1223 12.7828Z" fill="white"/>
<path fill-rule="evenodd" clip-rule="evenodd" d="M32.6292 32.3398L20.0942 39.574C19.8298 39.7324 19.7499 40.0779 19.8821 40.3161L21.8167 43.6288H23.1151L21.2067 40.3161C21.1269 40.1839 21.1805 39.998 21.3128 39.9182C21.445 39.8384 21.6308 39.8658 21.7106 40.0242L23.8035 43.6276H39.7835L33.3701 32.5506C33.2129 32.2862 32.8949 32.2076 32.6292 32.3398Z" fill="white"/>
<path fill-rule="evenodd" clip-rule="evenodd" d="M20.0954 41.2441L19.8571 41.3764C19.8048 41.43 19.7773 41.5086 19.8048 41.5884L20.9971 43.6289H21.501L20.0954 41.2441Z" fill="white"/>
<path fill-rule="evenodd" clip-rule="evenodd" d="M32.4969 32.1015L25.4212 36.1826L17.7892 22.9316L24.8387 18.8506L32.4969 32.1015Z" fill="white"/>
<path fill-rule="evenodd" clip-rule="evenodd" d="M23.7786 17.5261L17.1531 21.3428C17.0209 21.4226 16.9947 21.5548 17.0471 21.687L17.6296 22.6935L24.7053 18.6125L24.1228 17.606C24.043 17.4737 23.8846 17.4463 23.7786 17.5261Z" fill="white"/>
<path fill-rule="evenodd" clip-rule="evenodd" d="M21.6058 16.8102L17.6046 19.1164C17.4985 19.1688 17.4461 19.3284 17.5247 19.4344L18.1072 20.4684L22.5325 17.8978L21.95 16.8913C21.8702 16.784 21.7118 16.7316 21.6058 16.8102Z" fill="white"/>
<path fill-rule="evenodd" clip-rule="evenodd" d="M20.7315 16.9698L18.1871 18.454L14.9005 12.7029L17.4187 11.2461L20.7315 16.9698Z" fill="white"/>
<path fill-rule="evenodd" clip-rule="evenodd" d="M17.0471 10C16.0405 10.5825 15.0065 11.1662 14 11.7487C14.1322 11.9071 14.2644 12.0131 14.3979 12.1465C14.5301 12.2526 14.6361 12.3586 14.7421 12.4646C15.5903 11.9881 16.4384 11.4842 17.2865 11.0065C17.2603 10.8481 17.2067 10.7147 17.1805 10.5563C17.1531 10.3717 17.1007 10.1858 17.0471 10Z" fill="white"/>
<path fill-rule="evenodd" clip-rule="evenodd" d="M23.4069 21.6069L20.8638 23.065L25.0508 30.2991L27.5678 28.8149L23.4069 21.6069Z" fill="white"/>
<path fill-rule="evenodd" clip-rule="evenodd" d="M24.7851 20.4946L19.2199 23.7013C19.0876 23.7811 18.928 23.7275 18.8756 23.6215L18.4515 22.8793L24.4671 19.4082L24.8912 20.1503C24.9448 20.2551 24.9186 20.4147 24.7851 20.4946Z" fill="white"/>
<path fill-rule="evenodd" clip-rule="evenodd" d="M30.7482 29.6371L24.1489 33.4263L23.1686 31.7038L29.7404 27.8872L30.7482 29.6371Z" fill="white"/>
<path fill-rule="evenodd" clip-rule="evenodd" d="M15.5105 12.7827C15.4581 12.8089 15.4306 12.8888 15.4581 12.9411L18.2669 17.7905C18.2931 17.8429 18.3729 17.8429 18.4253 17.8167C18.4777 17.7905 18.5051 17.7107 18.4515 17.657L15.6689 12.8351C15.6427 12.7827 15.5641 12.7565 15.5105 12.7827Z" fill="white"/>
</svg>
